# xmcd
#
# Track frame offsets: 
#        180
#        10529
#        18175
#        28419
#        37771
#        48039
#        60454
#        71098
#        84957
#        95812
#        108331
#        117625
#        129764
#        140512
#        153591
#        164593
#        176082
#        187450
#        199678
#        212145
#        224123
#        235393
#        246898
#        258761
#        270815
#        283889
#
# Disc length: 3916 seconds
#
# Revision: 1
# Processed by: cddbd v1.5.2PL0 Copyright (c) Steve Scherf et al.
# Submitted via: ExactAudioCopyFreeDBPlugin 1.0
#
DISCID=7c0f4a1a
DTITLE=Clyde McPhatter - Love Ballads - Clyde
DYEAR=1998
DGENRE=Blues
TTITLE0=Heartaches
TTITLE1=Come What May
TTITLE2=Rock And Cry
TTITLE3=That's Enough For Me
TTITLE4=I Gotta Have You
TTITLE5=Bip Bam
TTITLE6=Just To Hold My Hand
TTITLE7=Lucille
TTITLE8=Long Lonely Nights
TTITLE9=When You're Sincere
TTITLE10=No Matter What
TTITLE11=No Love Like Her Love
TTITLE12=You'll Be There
TTITLE13=Love Has Joined Us Together
TTITLE14=Since You've Been Gone
TTITLE15=Lovey Dovey
TTITLE16=I'm Lonely Tonight
TTITLE17=Let Me Know
TTITLE18=The Way I Feel
TTITLE19=My Island Of Dreams
TTITLE20=A Lover's Question
TTITLE21=Hot Ziggity
TTITLE22=Try Try Baby
TTITLE23=Gone
TTITLE24=Everyone's Laughing
TTITLE25=I Can't Stand Up Alone
EXTD=
EXTT0=
EXTT1=
EXTT2=
EXTT3=
EXTT4=
EXTT5=
EXTT6=
EXTT7=
EXTT8=
EXTT9=
EXTT10=
EXTT11=
EXTT12=
EXTT13=
EXTT14=
EXTT15=
EXTT16=
EXTT17=
EXTT18=
EXTT19=
EXTT20=
EXTT21=
EXTT22=
EXTT23=
EXTT24=
EXTT25=
PLAYORDER=
